{"title":"Blended.2014.AVI.BRRip.720p.DivX.NLsub.{Th3Sp3cialist}","uid":10915743,"size":2729084334,"categoryP":"video","categoryS":"hd___movies","magnet":"?xt=urn:btih:1dbc145a66f8d1a657cb4b75fa20a6e6ca6786ec&amp;dn=Blended.2014.AVI.BRRip.720p.DivX.NLsub.%7BTh3Sp3cialist%7D&amp;tr=udp%3A%2F%2Ftracker.openbittorrent.com%3A80&amp;tr=udp%3A%2F%2Fopen.demonii.com%3A1337&amp;tr=udp%3A%2F%2Ftracker.coppersurfer.tk%3A6969&amp;tr=udp%3A%2F%2Fexodus.desync.com%3A6969","seeders":6,"leechers":0,"uploader":"HOLLANDmovies","files":-1,"time":1409304564,"description":"INFO\n\nBlended (2014)\n6 117 min - Comedy\n\nAfter a bad blind date, a man and woman find themselves stuck together at a resort for families, where their attraction grows as their respective kids benefit from the burgeoning relationship.\n\nDirector: Frank Coraci\nWriters: Ivan Menchell, Clare Sera\nStars: Adam Sandler, Drew Barrymore, Wendi McLendon-Covey \n\n\nComplete name : Blended.2014.AVI.BRRip.720p.DivX.NLsub.{Th3Sp3cialist}.avi\nFormat : AVI\nFormat/Info : Audio Video Interleave\nFormat profile : OpenDML\nFile size : 2.52 GiB\nDuration : 1h 57mn\nOverall bit rate : 3 072 Kbps\n\nVideo\nID : 0\nOriginal Source : Blended 2014 720p BRRip H264 AAC - KiNGDOM\nFormat : xvid\nCodec ID : xvid\nDuration : 1h 57mn\nBit rate : 2 741 Kbps\nWidth : 1 280 pixels\nHeight : 688 pixels\nDisplay aspect ratio : 1.85:1\nFrame rate : 23.976 fps\nBits/(Pixel*Frame) : 0.130\nStream size : 2.24 GiB (89%)\n\nAudio\nID : 1\nFormat : MPEG Audio\nFormat version : Version 1\nFormat profile : Layer 3\nMode : Joint stereo\nMode extension : MS Stereo\nCodec ID : 55\nCodec ID/Hint : MP3\nDuration : 1h 57mn\nBit rate mode : Constant\nBit rate : 320 Kbps\nChannel(s) : 2 channels\nSampling rate : 48.0 KHz\nCompression mode : Lossy\nStream size : 268 MiB (10%)\nAlignment : Aligned on interleaves\nInterleave, duration : 24 ms (0.58 video frame)\n\n &lt;a href=&quot;\nhttp://bayimg.com/lAafOaAgB&quot; rel=&quot;nofollow&quot; target=&quot;_NEW&quot;&gt;\nhttp://bayimg.com/lAafOaAgB&lt;/a&gt;  &lt;a href=&quot;\nhttp://bayimg.com/laAFNAaGb&quot; rel=&quot;nofollow&quot; target=&quot;_NEW&quot;&gt;\nhttp://bayimg.com/laAFNAaGb&lt;/a&gt; &lt;a href=&quot;\nhttp://bayimg.com/lAAFpaagb&quot; rel=&quot;nofollow&quot; target=&quot;_NEW&quot;&gt;\nhttp://bayimg.com/lAAFpaagb&lt;/a&gt;\n","torrent":{"xt":"urn:btih:1dbc145a66f8d1a657cb4b75fa20a6e6ca6786ec","amp;dn":"Blended.2014.AVI.BRRip.720p.DivX.NLsub.%7BTh3Sp3cialist%7D","amp;tr":["udp%3A%2F%2Ftracker.openbittorrent.com%3A80","udp%3A%2F%2Fopen.demonii.com%3A1337","udp%3A%2F%2Ftracker.coppersurfer.tk%3A6969","udp%3A%2F%2Fexodus.desync.com%3A6969"],"infoHash":"1dbc145a66f8d1a657cb4b75fa20a6e6ca6786ec","infoHashBuffer":{"type":"Buffer","data":[29,188,20,90,102,248,209,166,87,203,75,117,250,32,166,230,202,103,134,236]},"announce":[],"urlList":[]}}